<svg width="258" height="202" viewBox="0 0 258 202" fill="none" xmlns="http://www.w3.org/2000/svg">
<rect width="258" height="202" fill="white"/>
<path d="M117 32.5L122.5 42L117 49L122.5 59L120.5 71L129.8 77.5L129.8 91.5" stroke="black" stroke-width="2"/>
<path d="M116.449 33.2229L128.413 25.1827L144.012 25.3194L156.88 17.2378L171.575 17.4158L184.497 9.53018L199.138 9.51228L212.269 1.80256L217.5 1.80256" stroke="black" stroke-width="2"/>
<path d="M20.1107 197.037L33.9247 193.037L47.5125 193.022L61.5527 185.036L74.2074 185.023L89.1807 177.036L104.016 177.021L116.809 169.036L130.266 169.022L144.437 161.035L156.961 161.022L172.065 153.035L186.769 153.02L195.749 147.779C198.801 145.997 202.257 145.054 205.767 145.044L214.798 145.019L225.947 133.076L244.5 136L256.5 133.076" stroke="black" stroke-width="5"/>
<path d="M216.5 0.999977L225.168 10.9681L231.5 10.9681L228 22L233.739 33L223.314 42.4187L233.739 49.3106L226.695 57.5454L237.775 67.365L230.404 74.136L240.829 81.0279L234.44 92.1904L245.083 100.058L239.239 113.661L249.009 117.625L256.5 135" stroke="#010101" stroke-width="2"/>
<path d="M5.5 130.5L3.41404 140.789L10.4619 148.271L5.87409 159.467L14.229 165.542L9.69398 174.907L17.9962 182.813L15.6217 191.206L20.5 200" stroke="#974747" stroke-width="5"/>
<path d="M5.5 130.5L3.41404 140.789L10.4619 148.271L5.87409 159.467L14.229 165.542L9.69398 174.907L17.9962 182.813L15.6217 191.206L20.5 200" stroke="black" stroke-width="5"/>
<path d="M58.4997 142.803C58.0183 141.798 57.4504 140.959 56.796 140.285C56.151 139.591 55.4148 139.073 54.5875 138.729C53.7551 138.371 52.8341 138.195 51.8245 138.201C50.8149 138.207 49.7145 138.411 48.5233 138.814C46.2701 139.577 44.3563 140.849 42.7818 142.629C41.2217 144.405 40.127 146.591 39.4975 149.187C38.863 151.769 38.8319 154.675 39.4043 157.904C39.9624 161.138 40.8764 163.74 42.1464 165.709C43.4307 167.674 45.0031 168.973 46.8637 169.607C48.7337 170.221 50.8311 170.135 53.1561 169.348C55.2658 168.634 57.0296 167.621 58.4476 166.309C59.8606 164.983 60.857 163.454 61.4369 161.722C62.0312 159.986 62.15 158.13 61.7935 156.155L63.7428 155.808L52.3979 159.648L51.1046 152.264L69.5536 146.019L70.5499 151.872C71.2887 155.94 71.0976 159.716 69.9765 163.198C68.8555 166.681 66.9918 169.695 64.3854 172.241C61.7934 174.782 58.6389 176.681 54.9218 177.939C50.7885 179.339 46.9894 179.609 43.5243 178.75C40.0686 177.873 37.155 175.956 34.7837 173C32.4217 170.025 30.8074 166.092 29.9409 161.203C29.2788 157.445 29.2116 153.917 29.7392 150.619C30.2762 147.302 31.3011 144.3 32.8139 141.613C34.3267 138.925 36.2395 136.622 38.5523 134.704C40.8795 132.78 43.4926 131.328 46.3916 130.347C48.8888 129.501 51.2772 129.101 53.5569 129.145C55.846 129.17 57.9463 129.595 59.8578 130.419C61.7837 131.239 63.4387 132.43 64.8227 133.993C66.2161 135.536 67.2658 137.404 67.9718 139.597L58.4997 142.803ZM106.214 160.625C102.842 161.767 99.7994 161.997 97.087 161.315C94.3696 160.62 92.1094 159.145 90.3063 156.893C88.5126 154.621 87.2954 151.682 86.6548 148.076C86.015 144.518 86.1117 141.182 86.945 138.069C87.7783 134.956 89.2764 132.249 91.4393 129.95C93.5972 127.636 96.3409 125.915 99.6705 124.788C103.029 123.651 106.067 123.431 108.784 124.126C111.496 124.808 113.757 126.282 115.565 128.549C117.373 130.816 118.597 133.753 119.238 137.359C119.858 140.907 119.744 144.241 118.897 147.359C118.049 150.477 116.554 153.19 114.41 155.499C112.262 157.794 109.53 159.503 106.214 160.625ZM104.633 153.243C106.183 152.718 107.4 151.818 108.285 150.543C109.179 149.249 109.755 147.71 110.012 145.928C110.278 144.126 110.23 142.207 109.868 140.17C109.516 138.162 108.945 136.468 108.155 135.088C107.36 133.694 106.374 132.716 105.197 132.154C104.035 131.588 102.7 131.56 101.193 132.07C99.643 132.595 98.421 133.504 97.5268 134.799C96.6276 136.079 96.052 137.617 95.8 139.414C95.5481 141.211 95.6057 143.135 95.973 145.186C96.3345 147.175 96.9056 148.869 97.6862 150.268C98.4618 151.653 99.438 152.626 100.615 153.187C101.786 153.734 103.126 153.753 104.633 153.243ZM148.05 146.44C145.955 147.149 144.011 147.399 142.22 147.19C140.437 146.961 138.931 146.239 137.701 145.024C136.471 143.809 135.657 142.061 135.257 139.781C134.93 137.845 134.988 136.114 135.432 134.588C135.885 133.043 136.617 131.676 137.628 130.486C138.639 129.296 139.849 128.238 141.259 127.313C142.682 126.383 144.201 125.565 145.816 124.859C147.669 124.008 149.165 123.285 150.306 122.691C151.46 122.093 152.279 121.52 152.761 120.973C153.238 120.411 153.418 119.758 153.301 119.014L153.256 118.886C152.999 117.469 152.382 116.51 151.403 116.01C150.433 115.49 149.174 115.493 147.624 116.018C145.988 116.571 144.721 117.4 143.824 118.503C142.941 119.602 142.449 120.784 142.348 122.05L133.755 124.191C133.798 121.937 134.317 119.826 135.311 117.858C136.315 115.871 137.748 114.122 139.611 112.612C141.468 111.088 143.724 109.876 146.379 108.977C148.216 108.355 150.006 107.989 151.75 107.879C153.508 107.764 155.126 107.96 156.605 108.467C158.098 108.969 159.352 109.84 160.366 111.081C161.389 112.302 162.087 113.945 162.459 116.01L166.539 139.485L157.842 142.429L157.012 137.6L156.754 137.687C156.412 138.954 155.87 140.154 155.127 141.285C154.38 142.402 153.423 143.405 152.259 144.295C151.089 145.171 149.686 145.886 148.05 146.44ZM149.517 138.889C150.851 138.438 151.985 137.758 152.919 136.85C153.862 135.923 154.539 134.878 154.949 133.716C155.374 132.548 155.484 131.351 155.278 130.125L154.61 126.441C154.388 126.724 154.029 127.029 153.534 127.357C153.054 127.679 152.52 128.012 151.934 128.354C151.357 128.678 150.77 128.996 150.174 129.31C149.572 129.609 149.036 129.887 148.564 130.143C147.514 130.674 146.611 131.26 145.856 131.899C145.102 132.538 144.554 133.243 144.215 134.014C143.87 134.771 143.784 135.599 143.956 136.501C144.192 137.813 144.821 138.664 145.841 139.054C146.871 139.425 148.096 139.37 149.517 138.889Z" fill="#DB3918"/>
<path d="M3.50003 130.5L15.0531 120.613L32.1526 124.077L45.207 111.629L62.0168 115.034L75.8316 102.74L91.8809 105.991L105.044 93.5655L116 100L130 90.5" stroke="black" stroke-width="2"/>
<path fill-rule="evenodd" clip-rule="evenodd" d="M167.615 111.404C163.356 91.0196 161.801 73.665 173.581 62.8813C188.489 84.6645 189.284 109.762 188.275 139.386L202.266 134.987C198.296 89.3512 189.156 75.0406 179.655 62.7344C189.733 65.5926 200.791 75.125 213.598 91.7196C217.887 68.9823 207.2 56.6451 180.433 54.8578C192.847 46.14 207.381 47.7155 222.743 55.0084C208.765 31.7609 188.511 31.4317 176.34 51.0437C173.202 32.2268 164.706 30.1314 153.88 29.1922C160.548 34.9346 166.214 41.3268 168.248 50.0819C149.146 40.5773 138.329 49.719 130.601 65.8067C140.781 59.6915 151.804 55.0052 163.37 58.6562C145.495 61.7943 138.86 74.8896 136.84 89.9807C142.005 80.873 147.462 74.3124 154.421 71.2385C151.097 87.813 158.169 99.3171 167.615 111.404Z" fill="#388242"/>
<path d="M16 121L5 131.5" stroke="black" stroke-width="3"/>
</svg>
