<svg width="471" height="399" viewBox="0 0 471 399" fill="none" xmlns="http://www.w3.org/2000/svg">
<rect width="471" height="399" fill="white"/>
<g filter="url(#filter0_d_6_79)">
<path d="M4.85566 267L62.2795 260.229L111.856 234.106L164.85 234.106L210.856 209.794L260.172 209.681L234.558 150.5L260.172 97.0002L234.558 54.5L260.172 9.79304L308.856 -5.83348e-05L359.558 9.79355L413.856 -5.5376e-05L467 9.79303L451.558 38.5002L467 69.5L451.558 97.0002L467 134L451.558 169.5L467 209.682L451.558 234.106L467 260.229L451.558 290.982L424.433 290.982L400.558 305.653L369.679 305.653L343.558 320.325L314.926 320.325L291.558 334.996L260.172 334.996L234.558 349.667L205.418 349.667L179.558 364.338L150.664 364.338L122.558 379.01L95.9102 379.01L56.9183 391L41.9183 349.667L4.85568 341L24.9183 297L4.85566 267Z" fill="#812828"/>
<path d="M9.20378 269.005L62.5723 262.712L63.0338 262.658L63.445 262.441L112.474 236.606L164.85 236.606L165.47 236.606L166.018 236.317L211.478 212.292L260.177 212.181L263.974 212.173L262.466 208.689L237.305 150.552L262.427 98.0797L263.009 96.8641L262.313 95.7097L237.458 54.468L261.777 12.0202L308.865 2.54805L359.084 12.2482L359.542 12.3367L360.002 12.2538L413.851 2.54115L463.173 11.63L449.356 37.3159L448.743 38.456L449.32 39.6149L464.172 69.43L449.378 95.7762L448.782 96.8386L449.251 97.9631L464.283 133.98L449.266 168.503L448.857 169.442L449.225 170.397L464.216 209.407L449.445 232.77L448.628 234.062L449.406 235.378L464.154 260.327L450.016 288.482L424.433 288.482L423.727 288.482L423.124 288.852L399.851 303.153L369.679 303.153L369.025 303.153L368.455 303.474L342.904 317.825L314.926 317.825L314.206 317.825L313.596 318.207L290.838 332.496L260.172 332.496L259.506 332.496L258.929 332.826L233.893 347.167L205.418 347.167L204.758 347.167L204.184 347.493L178.898 361.838L150.664 361.838L150.051 361.838L149.507 362.122L121.945 376.51L95.9102 376.51L95.5345 376.51L95.1754 376.62L58.4569 387.911L44.2684 348.814L43.8063 347.541L42.4876 347.233L8.39644 339.261L27.193 298.037L27.7713 296.769L26.9964 295.61L9.20378 269.005Z" stroke="white" stroke-width="5"/>
</g>
<path d="M354.325 106.842C326.781 122.524 320.168 160.531 316.856 208.644C306.099 175.296 299.388 144.893 314.555 110.499C300.085 112.462 286.47 123.192 272 139.768C283.959 107.751 303.31 83.3675 337.88 88.8636C318.617 72.7243 295.796 75.4287 273.743 81.8844C296.738 51.6341 321.615 38.9189 351.531 73.2695C352.577 52.4629 345.656 34.3607 336.538 17C355.924 26.6182 370.393 37.1742 365.878 81.0339C398.967 46.0726 436.012 60.9033 449 122.124C424.75 95.2757 398.897 81.6664 371.317 92.3314C419.538 114.926 432.438 149.691 412.129 197.063C397.659 151.393 382.544 122.582 365.582 109.234C376.321 143.105 385.299 181.163 367.656 285H339.536C357.58 220.094 369.824 165.467 354.325 106.842Z" fill="#189F1D"/>
<path d="M97.1464 309.832C96.7985 308.534 98.0006 307.085 100.753 305.487C103.505 303.888 106.611 302.625 110.073 301.697C113.535 300.77 116.535 301.457 119.073 303.758C121.673 306.043 123.429 308.885 124.34 312.286C125.251 315.686 125.372 321.948 124.703 331.072C124.079 340.118 122.716 344.922 120.614 345.485C119.748 345.717 118.932 345.638 118.165 345.247C117.476 344.901 117.024 344.327 116.808 343.523C115.616 339.072 115.146 332.374 115.399 323.427C113.487 327.915 111.107 331.766 108.258 334.981C105.471 338.18 102.254 340.267 98.6063 341.245C95.0208 342.205 90.8274 341.639 86.0262 339.547C81.225 337.454 78.3191 334.522 77.3087 330.751C75.5197 324.075 75.5185 316.157 77.305 306.999C79.0749 297.779 82.2188 289.482 86.7366 282.11C91.2544 274.737 96.2024 270.33 101.581 268.889C103.435 268.392 105.741 269.332 108.498 271.707C111.316 274.066 113.049 276.451 113.695 278.862C113.993 279.975 113.74 280.639 112.936 280.854C112.813 280.887 112.192 280.921 111.075 280.955C109.958 280.989 108.627 281.214 107.081 281.628C102.939 282.738 99.276 286.005 96.0916 291.43C92.8907 296.793 90.7584 302.93 89.6948 309.841C88.6312 316.752 88.8282 322.927 90.2859 328.367C90.7165 329.975 91.9828 330.497 94.0847 329.934C96.9902 329.155 100.197 326.904 103.705 323.182C107.275 319.442 109.773 315.659 111.199 311.831C109.855 312.258 108.194 312.736 106.216 313.266C104.3 313.779 102.38 313.664 100.458 312.92C98.5983 312.16 97.4942 311.13 97.1464 309.832ZM177.471 310.77C180.412 308.392 182.514 304.616 183.778 299.44C185.041 294.265 185.143 289.699 184.083 285.742C183.023 281.786 181.738 279.215 180.227 278.03C177.983 280.287 176.195 284.245 174.862 289.903C173.59 295.544 173.46 300.25 174.47 304.021C175.464 307.73 176.465 309.98 177.471 310.77ZM162.293 308.278C160.223 300.551 160.64 292.587 163.545 284.388C166.511 276.172 170.344 271.435 175.042 270.176C179.74 268.917 184.144 269.526 188.253 272.003C192.346 274.418 195.021 277.975 196.28 282.673C197.523 287.309 197.677 292.337 196.744 297.755C195.81 303.173 193.765 308.028 190.608 312.319C187.434 316.549 183.56 319.276 178.986 320.502C175.586 321.413 172.244 320.685 168.959 318.319C165.675 315.952 163.453 312.605 162.293 308.278ZM271.247 267.555C272.625 268.246 273.421 268.993 273.637 269.797C273.852 270.601 273.928 272.369 273.866 275.102C273.803 277.836 273.839 279.947 273.972 281.435C274.089 282.861 274.163 284.001 274.193 284.854C274.284 285.691 274.366 286.365 274.436 286.876C274.49 287.325 274.516 287.915 274.513 288.644C274.571 289.358 274.597 289.947 274.589 290.413C274.627 290.8 274.627 291.297 274.591 291.903C274.6 292.431 274.553 292.874 274.45 293.233C274.331 293.53 274.189 293.866 274.025 294.241C273.786 294.835 273.234 295.248 272.369 295.48C271.503 295.712 270.19 295.137 268.428 293.753C266.727 292.354 265.237 290.5 263.956 288.193C259.735 295.685 255.647 299.961 251.69 301.021C249.032 301.733 245.768 301.051 241.899 298.973C238.013 296.834 235.68 294.312 234.902 291.407C234.107 288.439 234.31 283.879 235.51 277.727C236.711 271.575 238.977 265.567 242.309 259.705C245.703 253.826 249.657 250.282 254.17 249.073C256.766 248.377 260.17 249.089 264.382 251.207C268.594 253.325 271.039 255.651 271.718 258.186C272.381 260.659 272.224 263.782 271.247 267.555ZM248.189 289.437C250.662 288.774 253.491 286.227 256.676 281.795C259.907 277.286 261.33 272.333 260.944 266.937C260.807 266.178 261.217 265.605 262.172 265.216C261.043 261.742 259.983 260.137 258.994 260.403C256.522 261.065 254.17 263.418 251.941 267.461C249.773 271.487 248.189 275.589 247.188 279.766C246.249 283.927 246.011 286.873 246.475 288.604C246.607 289.098 246.76 289.422 246.934 289.574C247.152 289.648 247.571 289.602 248.189 289.437Z" fill="white"/>
<defs>
<filter id="filter0_d_6_79" x="0.855652" y="-6.10352e-05" width="470.144" height="399" filterUnits="userSpaceOnUse" color-interpolation-filters="sRGB">
<feFlood flood-opacity="0" result="BackgroundImageFix"/>
<feColorMatrix in="SourceAlpha" type="matrix" values="0 0 0 0 0 0 0 0 0 0 0 0 0 0 0 0 0 0 127 0" result="hardAlpha"/>
<feOffset dy="4"/>
<feGaussianBlur stdDeviation="2"/>
<feComposite in2="hardAlpha" operator="out"/>
<feColorMatrix type="matrix" values="0 0 0 0 0 0 0 0 0 0 0 0 0 0 0 0 0 0 0.25 0"/>
<feBlend mode="normal" in2="BackgroundImageFix" result="effect1_dropShadow_6_79"/>
<feBlend mode="normal" in="SourceGraphic" in2="effect1_dropShadow_6_79" result="shape"/>
</filter>
</defs>
</svg>
