<svg width="65" height="35" viewBox="0 0 65 35" fill="none" xmlns="http://www.w3.org/2000/svg">
<path d="M0 5.8L0.176 3.96H7.776L7.6 5.8L4.816 5.56L4.752 10.84L4.944 15H2.704L2.896 11.112L2.832 5.576L0 5.8ZM8.53325 7.272L10.4693 6.856C10.5653 7.67733 10.6293 8.456 10.6613 9.192C11.6319 7.688 12.5439 6.936 13.3973 6.936L13.2213 9.432C12.6026 9.432 12.1119 9.49067 11.7493 9.608C11.3973 9.71467 11.0346 9.93333 10.6613 10.264V10.84L10.8373 14.6L8.69325 15L8.88525 11.112C8.84258 9.68267 8.72525 8.40267 8.53325 7.272ZM16.0124 15C15.383 15 14.8657 14.8027 14.4604 14.408C14.0657 14.0027 13.8684 13.464 13.8684 12.792C13.8684 12.1093 14.1777 11.5227 14.7964 11.032C15.415 10.5307 16.167 10.28 17.0524 10.28H18.1404V10.008C18.1404 9.48533 18.0337 9.128 17.8204 8.936C17.607 8.744 17.207 8.648 16.6204 8.648C16.375 8.648 16.0817 8.70133 15.7404 8.808C15.4097 8.904 15.0364 9.05867 14.6204 9.272L14.1564 8.008C14.615 7.688 15.1697 7.4 15.8204 7.144C16.4817 6.888 17.0257 6.76 17.4524 6.76C19.127 6.76 19.9644 7.57067 19.9644 9.192V12.328C19.9644 12.9253 20.151 13.592 20.5244 14.328L18.8284 15.048C18.5617 14.536 18.3644 14.0773 18.2364 13.672C17.6497 14.5573 16.9084 15 16.0124 15ZM16.6844 13.368C17.111 13.368 17.5964 13.1493 18.1404 12.712V11.64C17.575 11.512 17.1164 11.448 16.7644 11.448C16.0924 11.448 15.7564 11.7467 15.7564 12.344C15.7564 12.6533 15.8417 12.904 16.0124 13.096C16.183 13.2773 16.407 13.368 16.6844 13.368ZM24.6324 13H24.8404L25.3684 10.808L26.2324 6.856L28.2164 7.096L27.0164 11.064L26.0084 14.808L23.2724 15.048L22.3284 11.16L21.1764 7.272L23.3524 6.872L24.0404 10.392L24.6324 13ZM32.1518 13.368C32.4611 13.368 32.7864 13.288 33.1278 13.128C33.4691 12.968 33.7358 12.808 33.9278 12.648L34.2158 12.408L34.9518 13.304C34.8451 13.4853 34.6798 13.6933 34.4558 13.928C34.2318 14.1627 34.0024 14.3653 33.7678 14.536C33.5438 14.696 33.2398 14.8453 32.8558 14.984C32.4824 15.112 32.0931 15.176 31.6878 15.176C30.8238 15.176 30.1198 14.8507 29.5758 14.2C29.0318 13.5387 28.7598 12.6907 28.7598 11.656C28.7598 10.3547 29.1384 9.21333 29.8958 8.232C30.6531 7.25067 31.5384 6.76 32.5518 6.76C33.3304 6.76 33.9331 6.97867 34.3598 7.416C34.7971 7.85333 35.0158 8.46667 35.0158 9.256C35.0158 9.72533 34.9358 10.2587 34.7758 10.856L34.4558 11.192L30.4557 11.56C30.6371 12.7653 31.2024 13.368 32.1518 13.368ZM32.1518 8.408C31.6824 8.408 31.2878 8.6 30.9678 8.984C30.6478 9.35733 30.4611 9.83733 30.4078 10.424L33.1278 10.088C33.1598 9.84267 33.1758 9.64 33.1758 9.48C33.1758 8.76533 32.8344 8.408 32.1518 8.408ZM38.6044 2.616L38.3964 10.84L38.5724 14.6L36.4124 15L36.6044 11.112L36.4124 3.016L38.6044 2.616ZM40.2833 7.272L42.2193 6.856C42.3153 7.67733 42.3793 8.456 42.4113 9.192C43.3819 7.688 44.2939 6.936 45.1473 6.936L44.9713 9.432C44.3526 9.432 43.8619 9.49067 43.4993 9.608C43.1473 9.71467 42.7846 9.93333 42.4113 10.264V10.84L42.5873 14.6L40.4433 15L40.6353 11.112C40.5926 9.68267 40.4753 8.40267 40.2833 7.272ZM48.3064 6.856L48.1144 10.84L48.2904 14.6L46.1464 15L46.3384 11.112L46.1624 7.256L48.3064 6.856ZM46.0504 4.52C46.0504 4.15733 46.189 3.83733 46.4664 3.56C46.7437 3.272 47.0637 3.128 47.4264 3.128C47.789 3.128 48.0664 3.22933 48.2584 3.432C48.4504 3.624 48.5464 3.91733 48.5464 4.312C48.5464 4.70667 48.4077 5.048 48.1304 5.336C47.8637 5.61333 47.549 5.752 47.1864 5.752C46.8344 5.752 46.557 5.63467 46.3544 5.4C46.1517 5.16533 46.0504 4.872 46.0504 4.52ZM54.2926 13.432C53.4606 14.4773 52.7406 15 52.1326 15C51.3753 15 50.7513 14.6907 50.2606 14.072C49.7806 13.4533 49.5406 12.6587 49.5406 11.688C49.5406 10.3547 49.9086 9.22933 50.6446 8.312C51.3913 7.39467 52.3033 6.936 53.3806 6.936L54.2766 7.064V6.76L54.0846 3.016L56.2766 2.616L56.0686 10.84V12.248C56.0686 12.888 56.2286 13.624 56.5486 14.456L54.8206 15.176C54.5113 14.536 54.3353 13.9547 54.2926 13.432ZM51.3326 10.856C51.3326 11.5387 51.4553 12.072 51.7006 12.456C51.9566 12.84 52.3193 13.032 52.7886 13.032C53.2686 13.032 53.7646 12.84 54.2766 12.456V9C53.6366 8.872 53.162 8.808 52.8526 8.808C52.3726 8.808 51.9993 8.97867 51.7326 9.32C51.466 9.66133 51.3326 10.1733 51.3326 10.856ZM60.9799 13.368C61.2892 13.368 61.6145 13.288 61.9559 13.128C62.2972 12.968 62.5639 12.808 62.7559 12.648L63.0439 12.408L63.7799 13.304C63.6732 13.4853 63.5079 13.6933 63.2839 13.928C63.0599 14.1627 62.8305 14.3653 62.5959 14.536C62.3719 14.696 62.0679 14.8453 61.6839 14.984C61.3105 15.112 60.9212 15.176 60.5159 15.176C59.6519 15.176 58.9479 14.8507 58.4039 14.2C57.8599 13.5387 57.5879 12.6907 57.5879 11.656C57.5879 10.3547 57.9665 9.21333 58.7239 8.232C59.4812 7.25067 60.3665 6.76 61.3799 6.76C62.1585 6.76 62.7612 6.97867 63.1879 7.416C63.6252 7.85333 63.8439 8.46667 63.8439 9.256C63.8439 9.72533 63.7639 10.2587 63.6039 10.856L63.2839 11.192L59.2839 11.56C59.4652 12.7653 60.0305 13.368 60.9799 13.368ZM60.9799 8.408C60.5105 8.408 60.1159 8.6 59.7959 8.984C59.4759 9.35733 59.2892 9.83733 59.2359 10.424L61.9559 10.088C61.9879 9.84267 62.0039 9.64 62.0039 9.48C62.0039 8.76533 61.6625 8.408 60.9799 8.408Z" fill="#DB3918"/>
<path d="M17.136 30.176C15.7387 30.176 14.6133 29.7067 13.76 28.768C12.9067 27.8293 12.48 26.5867 12.48 25.04C12.48 23.28 13.0133 21.7973 14.08 20.592C15.1467 19.3867 16.4587 18.784 18.016 18.784C18.6347 18.784 19.2053 18.8427 19.728 18.96C20.2613 19.0667 20.64 19.1787 20.864 19.296L21.184 19.472L20.256 21.696C19.936 21.4827 19.504 21.2853 18.96 21.104C18.416 20.912 17.936 20.816 17.52 20.816C16.656 20.816 15.9627 21.12 15.44 21.728C14.9173 22.336 14.656 23.1413 14.656 24.144C14.656 25.4987 14.9013 26.5547 15.392 27.312C15.8933 28.0693 16.5867 28.448 17.472 28.448C18.048 28.448 18.592 28.368 19.104 28.208V25.728H17.04L17.2 24.112H21.04L20.896 26.72L21.008 29.488C19.44 29.9467 18.1493 30.176 17.136 30.176ZM22.6199 26.656C22.6199 25.2907 22.9879 24.1333 23.7239 23.184C24.4599 22.2347 25.3185 21.76 26.2999 21.76C27.2919 21.76 28.0599 22.08 28.6039 22.72C29.1585 23.36 29.4359 24.208 29.4359 25.264C29.4359 26.672 29.0785 27.8453 28.3639 28.784C27.6599 29.712 26.7692 30.176 25.6919 30.176C24.8065 30.176 24.0705 29.8453 23.4839 29.184C22.9079 28.512 22.6199 27.6693 22.6199 26.656ZM27.6439 26.096C27.6439 24.5493 27.1159 23.776 26.0599 23.776C24.9612 23.776 24.4119 24.5013 24.4119 25.952C24.4119 26.7093 24.5665 27.3013 24.8759 27.728C25.1852 28.1547 25.5905 28.368 26.0919 28.368C26.6039 28.368 26.9879 28.176 27.2439 27.792C27.5105 27.3973 27.6439 26.832 27.6439 26.096ZM32.4186 30C31.7893 30 31.272 29.8027 30.8666 29.408C30.472 29.0027 30.2746 28.464 30.2746 27.792C30.2746 27.1093 30.584 26.5227 31.2026 26.032C31.8213 25.5307 32.5733 25.28 33.4586 25.28H34.5466V25.008C34.5466 24.4853 34.44 24.128 34.2266 23.936C34.0133 23.744 33.6133 23.648 33.0266 23.648C32.7813 23.648 32.488 23.7013 32.1466 23.808C31.816 23.904 31.4426 24.0587 31.0266 24.272L30.5626 23.008C31.0213 22.688 31.576 22.4 32.2266 22.144C32.888 21.888 33.432 21.76 33.8586 21.76C35.5333 21.76 36.3706 22.5707 36.3706 24.192V27.328C36.3706 27.9253 36.5573 28.592 36.9306 29.328L35.2346 30.048C34.968 29.536 34.7706 29.0773 34.6426 28.672C34.056 29.5573 33.3146 30 32.4186 30ZM33.0906 28.368C33.5173 28.368 34.0026 28.1493 34.5466 27.712V26.64C33.9813 26.512 33.5226 26.448 33.1706 26.448C32.4986 26.448 32.1626 26.7467 32.1626 27.344C32.1626 27.6533 32.248 27.904 32.4186 28.096C32.5893 28.2773 32.8133 28.368 33.0906 28.368Z" fill="#DB3918"/>
<path d="M45.6349 30.4515H43.4531V28.9032H45.6349L45.6786 28.9006C45.7149 29.3599 45.7731 29.9225 45.824 30.4412L45.6349 30.4515ZM43.9004 25.8064H45.7113C45.6713 26.3896 45.6495 26.9316 45.6422 27.3548H43.5659C43.6495 26.8877 43.7659 26.3509 43.9004 25.8064Z" fill="#E28F62"/>
<path d="M45.9678 31.7213C45.9718 31.7568 45.9654 31.7926 45.9489 31.8264C45.9325 31.8601 45.9063 31.891 45.8722 31.9172C45.838 31.9434 45.7965 31.9643 45.7504 31.9786C45.7043 31.9928 45.6545 32.0001 45.6042 32H43.8187C43.7223 32 43.6298 31.9728 43.5616 31.9244C43.4934 31.876 43.4551 31.8103 43.4551 31.7419V30.4516H45.6369L45.826 30.4413C45.8805 30.96 45.9351 31.4374 45.9678 31.7213ZM45.6369 28.9032H43.4551V28.3871C43.4658 28.0418 43.5035 27.6972 43.5678 27.3548H45.6442C45.6369 27.7109 45.6369 27.9845 45.6369 28.129C45.6369 28.2942 45.6551 28.5703 45.6805 28.9006L45.6369 28.9032ZM44.306 24.2581H45.8769C45.8005 24.7742 45.7496 25.3058 45.7133 25.8064H43.9024C44.0296 25.2826 44.1714 24.7484 44.306 24.2581Z" fill="#CD7141"/>
<path d="M44.8283 22.4413C45.4465 21.4813 45.992 20.4129 45.9992 19.631C46.0719 20.3407 46.3154 21.0364 46.7192 21.6877C46.2901 22.2013 46.2265 23.2419 45.8756 24.2581H44.3047C44.5229 23.471 44.7229 22.7974 44.8283 22.4465C44.832 22.4465 44.832 22.4439 44.8283 22.4413Z" fill="#DBB682"/>
<path d="M46.0052 19.6129C49.864 19.8761 49.864 24.7742 49.864 24.7742C48.7479 23.7868 47.7759 22.7549 46.9566 21.6877C46.4203 21.0364 46.1975 20.3459 46.1009 19.6361L46.0004 19.6129H46.0052ZM44.5231 22.371C44.5279 22.3736 44.4501 22.4465 44.4452 22.4465C43.7545 23.2439 42.9839 24.021 42.1367 24.7742C42.1367 24.7742 42.1367 19.8761 45.9955 19.6129H46.0004L46.1009 19.6361C46.0913 20.4181 45.3441 21.411 44.5231 22.371Z" fill="#5D802B"/>
<path d="M49.6362 21.4194C50.2507 22.5323 50.378 23.662 49.8635 24.7419C49.8635 24.7419 48.9089 19.8761 46.0034 19.6129C46.2433 19.6162 46.4827 19.6308 46.7198 19.6568C47.778 19.76 48.9771 20.2258 49.6362 21.4194ZM45.2798 19.6568C45.517 19.631 45.7563 19.6164 45.9962 19.6129C43.0907 19.8761 42.1817 24.7581 42.1817 24.7581C41.6671 23.6781 41.8625 22.5 42.3634 21.4194C42.9317 20.1936 44.2216 19.76 45.2798 19.6568Z" fill="#85B369"/>
<path d="M48.1811 18.3949C46.6138 18.6142 46.152 19.2904 46.0357 19.5278C46.3993 18.6426 46.9702 17.5923 48.5447 17.0323C50.7266 16.2581 53.272 16.7742 53.272 16.7742C53.272 16.7742 50.9629 17.0142 48.1847 18.3923C48.1847 18.393 48.1844 18.3936 48.1837 18.3941C48.183 18.3946 48.1821 18.3949 48.1811 18.3949ZM45.9629 19.5278C45.8357 19.2671 45.2975 18.4878 43.3666 18.3459C40.6066 16.942 38.7266 16.7742 38.7266 16.7742C38.7266 16.7742 41.272 16.2581 43.4538 17.0323C45.0284 17.5923 45.5993 18.6426 45.9629 19.5278Z" fill="#538F2C"/>
<path d="M51.0902 16C51.0902 16 52.5447 16.0981 53.272 16.7742C53.272 16.7742 50.9993 16.6936 48.8175 17.4678C47.2429 18.0278 46.3993 18.6426 46.0357 19.5278C46.0292 19.5368 46.0243 19.5463 46.0211 19.5562C46.0175 19.5691 46.0102 19.582 46.0066 19.5949C46.0029 19.6 46.0029 19.6052 45.9993 19.6078V19.5949C46.0066 19.3239 46.1702 16.3071 49.8357 16.0104C49.9444 16.003 50.0537 15.9996 50.1629 16H51.0902ZM42.1629 16.0104C45.8284 16.3071 45.992 19.3239 45.9993 19.5949V19.6078C45.9946 19.5994 45.991 19.5908 45.9884 19.582L45.9666 19.5355C45.9668 19.5341 45.9666 19.5327 45.966 19.5314C45.9653 19.53 45.9643 19.5288 45.9629 19.5278C45.5993 18.6426 44.6875 18.0278 43.1129 17.4678C40.9311 16.6936 38.7266 16.7742 38.7266 16.7742C39.4538 16.0955 40.9084 16 40.9084 16H41.8357C41.9449 15.9996 42.0542 16.003 42.1629 16.0104Z" fill="#6FC13D"/>
<path d="M48.9091 19.0968C52.1818 19.0968 54 22.4516 54 22.4516C54 22.4516 51.0909 19.6129 46.7273 19.6129L46.72 19.6568C46.4829 19.6309 46.2435 19.6162 46.0036 19.6129H46C46.0003 19.6109 46.0016 19.6091 46.0036 19.6078C46.0545 19.551 46.5236 19.0968 48.9091 19.0968ZM43.0909 19.0968C45.4764 19.0968 45.9455 19.551 45.9964 19.6078C45.9984 19.6091 45.9997 19.6109 46 19.6129H45.9964C45.7565 19.6164 45.5172 19.631 45.28 19.6568L45.2727 19.6129C40.9091 19.6129 38 22.4516 38 22.4516C38 22.4516 39.8182 19.0968 43.0909 19.0968Z" fill="#4F9A44"/>
<path d="M48.7727 19.0968C46.3873 19.0968 46.0545 19.551 46.0036 19.6078C46.0036 19.6026 46.0073 19.6 46.0073 19.5948C46.0109 19.5819 46.0182 19.569 46.0218 19.5561C46.025 19.5463 46.0299 19.5368 46.0364 19.5278C46.1527 19.2903 46.6145 18.6142 48.1818 18.3949C48.1828 18.3949 48.1837 18.3946 48.1844 18.3941C48.1851 18.3936 48.1855 18.393 48.1855 18.3923C48.5439 18.3442 48.908 18.3209 49.2727 18.3226C52.5455 18.3226 54 20.9032 54 22.4516C54 22.4516 52.0455 19.0968 48.7727 19.0968ZM45.9964 19.6078C45.9455 19.551 45.3627 19.3548 42.9773 19.3548C39.7045 19.3548 38 22.4516 38 22.4516C38 20.9032 39.4545 18.3226 42.7273 18.3226C42.941 18.322 43.1547 18.3298 43.3673 18.3458C45.2982 18.4878 45.8364 19.2671 45.9636 19.5278C45.965 19.5288 45.9661 19.53 45.9667 19.5313C45.9673 19.5327 45.9675 19.5341 45.9673 19.5355L45.9891 19.5819C45.9927 19.5897 45.9927 19.6 45.9964 19.6078Z" fill="#7BC24F"/>
<path d="M44.1804 28.9032H43.4531V30.4515H44.1804V28.9032ZM44.1804 27.0967C44.1981 26.6637 44.2632 26.2323 44.3749 25.8064H43.9022C43.7677 26.3509 43.6513 26.8877 43.5677 27.3548H44.1804V27.0967Z" fill="#92563A"/>
<path d="M43.4531 30.4516V31.7419C43.4531 31.8103 43.4914 31.876 43.5596 31.9244C43.6278 31.9728 43.7203 32 43.8168 32H44.1804V30.4516H43.4531ZM44.1804 27.3548H43.5659C43.5015 27.6972 43.4639 28.0418 43.4531 28.3871V28.9032H44.1804V27.3548ZM44.8189 24.2581H44.304C44.1695 24.7484 44.0277 25.2826 43.9004 25.8064H44.3731C44.4986 25.2854 44.6633 24.7352 44.8189 24.2581Z" fill="#6F3529"/>
<path d="M45.079 23.7566C45.1456 23.5636 45.2892 23.3883 45.4925 23.2517C45.6958 23.1151 45.9504 23.0229 46.2256 22.9863C46.3228 22.5342 46.7322 22.0695 47.0228 21.6613C46.6592 21.0161 46.3183 20.3065 46.091 19.631C46.0838 20.4129 45.3312 21.2742 44.7501 22.1613C44.7501 22.1613 44.6174 22.4413 44.6137 22.4413C44.5083 22.7923 44.6147 23.471 44.3965 24.2581H44.9114C44.9696 24.079 45.0267 23.9092 45.079 23.7566Z" fill="#BF9259"/>
</svg>
